<mxfile host="app.diagrams.net" modified="2022-07-24T05:10:00.440Z" agent="5.0 (Macintosh; Intel Mac OS X 10_15_7) AppleWebKit/537.36 (KHTML, like Gecko) Chrome/103.0.0.0 Safari/537.36" etag="EMnCvMz2rhb6CJsLGaDO" version="20.2.0" type="github">
  <diagram id="Zue_eKCFJt0pqccLzbwO" name="페이지-1">
    <mxGraphModel dx="983" dy="491" grid="1" gridSize="10" guides="1" tooltips="1" connect="1" arrows="1" fold="1" page="1" pageScale="1" pageWidth="1169" pageHeight="827" math="0" shadow="0">
      <root>
        <mxCell id="0" />
        <mxCell id="1" parent="0" />
      </root>
    </mxGraphModel>
  </diagram>
</mxfile>
